/* XPM */
static char *_bba488803c94288dbec7a5b064e66aedQVQZJtofH2mpPTL[] = {
/* columns rows colors chars-per-pixel */
"50 50 156 2 ",
"   c #160D08",
".  c #180F0A",
"X  c #1A110C",
"o  c #19120C",
"O  c #1A130D",
"+  c #1B140E",
"@  c #1D140F",
"#  c #1C150F",
"$  c #1E1510",
"%  c #1D1610",
"&  c #1C1711",
"*  c #1F1611",
"=  c #1E1711",
"-  c #1C1713",
";  c #1F1812",
":  c #1E1915",
">  c #211610",
",  c #201712",
"<  c #221713",
"1  c #201614",
"2  c #211813",
"3  c #201913",
"4  c #231812",
"5  c #231814",
"6  c #221914",
"7  c #211A14",
"8  c #231A15",
"9  c #221B15",
"0  c #221816",
"q  c #201B17",
"w  c #241B16",
"e  c #261B17",
"r  c #231C16",
"t  c #251C17",
"y  c #241D17",
"u  c #221D19",
"i  c #271C18",
"p  c #261D18",
"a  c #251E18",
"s  c #271E19",
"d  c #261F19",
"f  c #241F1B",
"g  c #261E1B",
"h  c #271F1C",
"j  c #281D19",
"k  c #2A1F19",
"l  c #291E1A",
"z  c #281F1A",
"x  c #232019",
"c  c #25201A",
"v  c #27201A",
"b  c #27221E",
"n  c #292019",
"m  c #29201B",
"M  c #28211B",
"N  c #28201D",
"B  c #2B201C",
"V  c #2A211C",
"C  c #29221C",
"Z  c #2B221D",
"A  c #2A231D",
"S  c #29211E",
"D  c #2B211F",
"F  c #2C211D",
"G  c #2C231C",
"H  c #2E231D",
"J  c #2D221E",
"K  c #2C231E",
"L  c #2E231F",
"P  c #2A261D",
"I  c #2B241E",
"U  c #2D241D",
"Y  c #2D241F",
"T  c #2C251F",
"R  c #2E251E",
"E  c #2F261F",
"W  c #30251F",
"Q  c #2B2320",
"!  c #2D2220",
"~  c #292420",
"^  c #2A2722",
"/  c #2C2421",
"(  c #2F2420",
")  c #2E2520",
"_  c #2D2620",
"`  c #2F2621",
"'  c #2E2721",
"]  c #2D2522",
"[  c #2C2723",
"{  c #2F2822",
"}  c #2F2B22",
"|  c #2D2824",
" . c #2E2B24",
".. c #302521",
"X. c #322421",
"o. c #312620",
"O. c #302720",
"+. c #322721",
"@. c #312622",
"#. c #302722",
"$. c #322723",
"%. c #312821",
"&. c #312823",
"*. c #302923",
"=. c #332822",
"-. c #322922",
";. c #332A23",
":. c #342923",
">. c #302825",
",. c #332824",
"<. c #322924",
"1. c #312A24",
"2. c #332A25",
"3. c #322B25",
"4. c #332927",
"5. c #342925",
"6. c #342B24",
"7. c #352A26",
"8. c #342B26",
"9. c #362B27",
"0. c #332C24",
"q. c #332C26",
"w. c #352C25",
"e. c #352C27",
"r. c #342D27",
"t. c #372C26",
"y. c #332B28",
"u. c #342A28",
"i. c #352A28",
"p. c #372C28",
"a. c #362D28",
"s. c #352E28",
"d. c #372E29",
"f. c #362F29",
"g. c #382D29",
"h. c #392E28",
"j. c #382F28",
"k. c #392E2A",
"l. c #382F2A",
"z. c #3A2F2B",
"x. c #373028",
"c. c #37302A",
"v. c #35302C",
"b. c #39302B",
"n. c #38312B",
"m. c #3A312C",
"M. c #39322C",
"N. c #3B322D",
"B. c #3A332D",
"V. c #3C312D",
"C. c #3C332E",
"Z. c #3B342E",
"A. c #3D342F",
"S. c #3C352F",
"D. c #3E3530",
"F. c #403732",
/* pixels */
"% A r r 3 a r q.{ *.{ *.A { M.A s.C.F.e e 7 a *.l 7 X a a ' 9.' J @ 7 7 l y J , M l e y y , , y ! p.",
"{ Z.s.n.s.s.A q.{ 1.*.{ M T s.M 9.' $.y 9.M.g.g.9.1.l 1.A J $.J e M M.9.r.g.S.M g.s.s.g.g.$.$.1.0 k ",
"A 1.T { ' ' % 7 ; r a v ; y *.r 1.J 1.l 9.*.J $.$.1.J 9.a 7 l y e A n.$.9.9.9.e 9.' *.9.*.T $.1.1 b ",
"1.M.' 1.1.s.I 1.a T *.q.A ' M.T 1.' 9.T 9.T A *.a T l r.J 9.g.M.$.y e 3 A y a , *.$.J T J J T r.] l.",
"I r.A I I { A c.v ' 1.q.M M { 3 l @ e % 9.1.$.1.9.1.l s.J $.1.1.$.e y e $.T T J g.1.*.9.$.T $.1.f  .",
"I c.{ 1.{ 1.A c.I 1.s.n.' ' s.a g.1.9.A 9.9.$.r.' J , l 3 7 e , 3 *.g.' g.r.9.J ' $.' 9.' l y a - f ",
"a r.' 1.' I 7 I ; r a M 7 A r.y $.$.r.7 3 % $ , e 7 + T M *.9.1.7 9.g.M r.*.$.y *.$.*.*.$.J l T I } ",
"M r.' *.' ' 3 M v A M A a I s.A *.$.$.7 r.C.g.9.9.s.$.M.9.9.9.9.$.$.M e r.J M T 9.$.T $.' T 1.g.0.c.",
"a 1.r.1.A 1.' M.s.s.s.M.s.1.q.v 9.$.$.A s.J 1.r.1.9.' $.$.J 1.$.l % y 7 e , l % $.$.s.$.*.l 1.s.G T ",
"{ ' ' 1.*.1.r ' A ' ' T ; + r % r.1.$.A 9.' J J $.' l ' *.$.r.*.' $.g.s.M.g.g.A 1.T *.J 9.M $.J W *.",
"q.*.' r.1.q.a r.{ 1.{ *.' 1.n.' $.' ..l g.r.9.1.J J a $.1.' 9.' v M 9.' 9.1.9.e s.$.9.' r.$.$.' W W ",
"r a M I y a 7 c.' *.I T T { { O 7 e a % $.' 1.' *.$.A *.s.$.1.$.l A 9.J T J $.7 a l T l l 7 $.9.$.6.",
"3 A T A 7 I r 1.T s.s.r.T T r.A g.n.g.' s.1.p.9.9.$.l 9.p.$.1.1.J ' g.*.9.*.g.A l M T l l 3 J *.,.i.",
"{ r.r.1.' c.v I y a 7 a a M 1.I 1.9.$.7 M e l e a y , A J e J ' l a 9.' 9.' 1.l g.*.1.$.r.J T A h h ",
"1.1.' ' A { 7 A M.' 3 v A v A ; T J J 3 $.' J a l a , A A 3 A $.l 7 T $.' l T J r.' $.l $.y M M a : ",
"1.{ A T 7 a r S.q.' I q.T y M v l l a , s.s.9.l z.s.*.g.9.J 9.n.$.e M a l + y l 9.$.*.a l 3 9.n.| [ ",
"J 1.*.T l 1.a ' $.1.e 9.a g.M.g.n.1.M.' ' $.T e 1.$.A 9.$.l J ,.l 9.r.g.9.1.n.T $.r.*.e $.T $.$.Q A ",
"A 9.9.$.A s.$.9.a $.e s.l 1.$.J { A q.a $.1.1.J s.$.a J A e $.9.A $.$.' M J 9.J $.9.9.y 1.J ' *.Q h ",
"M 1.1.J l s.T 9.9.n.' M.A 1.' A s.' q.y l v e % 7 e a s.z.,.9.,.M $.$.$.A J 1.M $.$.*.M *.M J 9.T A ",
"J J J J l ' 7 $.y A e J 7 $.9.1.' A *.7 J J A A $.A e l l , i l y ' *.9.$.' r.l T J ' J $.e M *.a a ",
"A 7 , A a 7 . l A ' a J 7 M 9.$.' I 1.v 9.1.*.g.s.1.a J k i k ! y T $.*.T ' r.y y @ y e y X , l J J ",
"g.*.J C.g.r.l D.g.g.s.g.$.J 9.T s.s.s.A 9.' l ' J ' J 9.C.p.z.p.J *.$.' J J 9.l g.' g.g.g.T g.r.1.s.",
"! k l 1.$.1.l 1.l ' $.$.' J r.J a I ' 7 9.' l 9.s.9.l A ! k ,...' 9.*.$.J ' 9.a 1.l 1.$.*.J 1.' ' $.",
"$.1.$.1.$.n.' 9.$.1.$.T a % l % 7 a A ; 1.$.M s.J $.! p.p.,.,.J l ' $.1.$.*.9.l 9.M 9.*.9.T g.T ' 1.",
"T J a 1.J J l 9.*.$.*.9.$.r.n.9.T M.n.M 9.J ' s.' 9.J g.9.$.$.,.e e A 3 , % a % r.l J J $.M 9.*.$.W ",
"s.$.e l 3 a l 1.$.$.T J l T { J a 1.*.3 A e , y a a % T J $.$.9.J T g.r.9.9.r.J r.y l a A e ' *.*.W ",
"A A l M.r.$.e y 7 , e e a J 9.$.M 1.1.7 $.T $.' 9.*., J i e , < e a r.1.9.*.9.a T l 9.n.C.l e @ > > ",
"g.*.A $.J $.' s.M.g.s.1.J ' ' A l 1.1.y 9.r.g.9.$.$.a s.9.p.g.g.A J 9.J ' T 9.l g.A J A $.A g.n.t.t.",
"J T T g.1.T l ' A T 1.9.' 1.9.9.{ 1.q.v $.$.1.' *.9.J g.$.J ..$.*.$.r.T $.' 9.A *.a $.*.9.M *.$.W W ",
"' J a $.l ' J C.$.$.1...e e 7 % r ; r + e + 7 , % e 3 1.J ..$.p.J M 9.J $.$.1.l g.J ' $.$.s *.6.W B ",
", e A C.g.9.J $.J ' $.$.J ' 9.1.q.A { { 9.J 9.9.g.M.' g.$.$...$.J A 9.' 1.1.9.y , + $.g.F.$.9.$.6.W ",
"n.$.7 J a A A 1.1.$.1.$.A T r.r.q.v ' { 1.a T ,.1.1.7 $.$.,.$.1.T J *.J $.' $.e F.' T y y , T t.W 6.",
"$.I 7 I v I v c.s.q.c.s.I 1.s.v 1.v ' a 1.' { 1.*.{ ' *.c.r.*.r.A T 1.'  .T s.M q.v y I ' A I 9.t.6.",
"1.{ v c.c.1.7 r r % r r 7 I c.q.A 3 v 3 v 7 r v y r 7 7 M a 7 M 7 A *.*.q.I s.v 1.I I r.1.M y I l , ",
"{ { v q.q.q.v I M.' T ' a A 1.{ { M 1.v I M v I ' I M A { I A *.a A 1.*.s.{ q.v { T ' s.q.v v I ' i ",
"; a ; v r y v c.q.I { c.{ { q.1.' A r.' s.s.c.M.*.' ' *.s.{ T s.' ' *.T { I s.r I M I *.{ I { c.9.h ",
"a { I q.' A a q.{ a ' s.{ I { I s.I *.a ' T M a ' T I *.r.' A r.7 7 r 7 r @ v O r 3 r a r ; v *.p.f ",
"s.c.1.c.c.s.I { r.I { *.v y v 7 7 O 7 ; *.c.n.s.' T A *.q.A A r.A *.c.q.c.{ c.I r.r.c.n.q.{ { c.| f ",
"{ { v ' I { a I a ; v v 7 v ' y Z.1.s.M *.*.' v ' M a M A 7 r 1.y A 1.{ { v q.v *.{ 1.1.T a y M f - ",
"A q.{ s.{ ' v T a r I ' v { q.I 1.' r.M *.r.s.r.r.' a A A 3 r 1.A ' 9.T I r q.I q.*.*.*.T M M T f : ",
"{ q.{ ' 1.I I c.I q.q.c.{ I q.M 1.1.*.3 a a A 3 7 y { 1.c.a s.M.1.M q.r.I ; { r r.' { T r.' q.q.| Q ",
"v { { 1.s.{ I n.a { { { I A q.v s.1.1.v 1.1.q.a *.I T { s.a ' ' I A q.q.{ M M.I c.*.s.{ s.I q.s.| Q ",
"{ s.s.q.s.I v q.v 1.q.*.I ' q.v 7 3 y 3 1.s.c.A ' I A I 1.a ' { v I q.' I v c.r ; + 7 ; r + r v A h ",
"r a ; 7 I A A q.r 1.q.q.I ' { ; { ' { v q.1.*.y { *.{ 1.1.A r.M.{ *.r.{ { I s.a *.{ r.q.c.{ q.c.' T ",
"I A 3 r { ' v 1.v q.q.q.{ q.c.v c.r.s.' q.{ *.a *.{ a ' A y A I ; @ ; r M ; v ; c.{ 1.' 1.v A M l s ",
"Z.Z.1.{ M.{ r v % 7 7 r r v { v I A ' a { ' 1.' 1.T % a A I a % I I I { n.I q.{ r.I { I { y v v B W ",
"I I v M q.{ v T { 1.{ q.*.{ q.' n.1.q.I q.' *.M r.s.v s.r.c.1.' { { I I c.' 1.M q.T *.' q.I *.q.h.h.",
"I { M A { I A c.q.{ { c.1.r r + 1.I ' A s.1.1.a A 1.' n.T T T { v { { v q.*.q.v r.{ q.{ *.l *.r.W W ",
"1.6.n W 0.H W *.*.W *.*.B T r.e *.g.W l M.$.*.J 9.T l 9.*.1.a l ; I q.I s.$.$.A r.W 0.W 6.n W 6.W W ",
"*.6.n W 0.T E W *.6.$.$.J W r.7 , y , @ 9.' 9.' 1.' l r.$.9.l a v { { ; y 3 3 @ r.W 6.W 6.n W 6.W $."
};
