/* XPM */
static char *_649f63616de4574e7179ec7e7fb7b0aLM4S1cifw6QfEHYJ[] = {
/* columns rows colors chars-per-pixel */
"50 50 191 2 ",
"   c #8FABD1",
".  c #8FAAD0",
"X  c #8FAAD1",
"o  c #90ACD2",
"O  c #90AED4",
"+  c #90AED3",
"@  c #8FACD2",
"#  c #8DA8CD",
"$  c #899AC3",
"%  c #8A9BC6",
"&  c #8A9BC7",
"*  c #8B9CC7",
"=  c #8EA7CE",
"-  c #8286B1",
";  c #949FC3",
":  c #99A7CA",
">  c #95A0C5",
",  c #8488B5",
"<  c #868CB9",
"1  c #8F9CC5",
"2  c #95A6CB",
"3  c #94A6CA",
"4  c #8C99BF",
"5  c #8187B1",
"6  c #8A9DC7",
"7  c #96B0D2",
"8  c #A1B6D2",
"9  c #A0B6D2",
"0  c #95B0D2",
"q  c #8B9CC8",
"w  c #90ADD2",
"e  c #8CA3CD",
"r  c #96ACCF",
"t  c #A5BAD2",
"y  c #A4B8D2",
"u  c #A7BBD3",
"i  c #A7BCD4",
"p  c #95AACE",
"a  c #8EA2CC",
"s  c #A0B6D1",
"d  c #B2C3D9",
"f  c #B4C5DA",
"g  c #A3B8D2",
"h  c #A4B9D3",
"j  c #8DA2CC",
"k  c #98ACCF",
"l  c #F2F4F8",
"z  c #E5EBF2",
"x  c #9FB5D0",
"c  c #A7BBD4",
"v  c #A8BCD4",
"b  c #97ACCF",
"n  c #A2B8D2",
"m  c #AABDD4",
"M  c #F0F4F8",
"N  c #C0CEE0",
"B  c #A1B6D1",
"V  c #A7BAD3",
"C  c #A3B9D3",
"Z  c #A5B9D3",
"A  c #A6BAD3",
"S  c #A5BAD3",
"D  c #8C9DC7",
"F  c #A8BBD3",
"G  c #A5B9D2",
"H  c #A0B5D0",
"J  c #8FADD2",
"K  c #8DA5CC",
"L  c #8C9DC6",
"P  c #9DB6D4",
"I  c #D5DEEA",
"U  c #9CB5D4",
"Y  c #8DA4CC",
"T  c #8B9DC6",
"R  c #8EADD4",
"E  c #83A3CE",
"W  c #D0DCEC",
"Q  c white",
"!  c #93AFD5",
"~  c #8AA8D1",
"^  c #8CAAD2",
"/  c #8BA9D1",
"(  c #8DACD3",
")  c #90ADD3",
"_  c #8CA2C9",
"`  c #8798C0",
"'  c #97B2D4",
"]  c #A1B1C9",
"[  c #E8EDF4",
"{  c gray99",
"}  c #ABB9CD",
"|  c #A7B6CD",
" . c #A8B7CD",
".. c #96B1D3",
"X. c #8698C0",
"o. c #8CA3C9",
"O. c #91AED3",
"+. c #88A0C9",
"@. c #99A1BC",
"#. c #D7D0C8",
"$. c #D9CCBF",
"%. c #E7DFD9",
"&. c #E5DED8",
"*. c #DACCC0",
"=. c #DDD0C4",
"-. c #DCD0C3",
";. c #DBCFC3",
":. c #D8D1C9",
">. c #9AA2BC",
",. c #91AED4",
"<. c #849DC6",
"1. c #A6ABBD",
"2. c #F0E8D6",
"3. c #DED7CC",
"4. c #E0D8CB",
"5. c #E1D9CC",
"6. c #E0D9CD",
"7. c #DFD7CC",
"8. c #DDD5CB",
"9. c #E8DECF",
"0. c #A2A5B8",
"q. c #859EC7",
"w. c #A5ABBE",
"e. c #F6F1DE",
"r. c #EFEBDB",
"t. c #F6F4E1",
"y. c #F7F6E2",
"u. c #F2EFDD",
"i. c #EFEADA",
"p. c #F0EBDB",
"a. c #E6E0D2",
"s. c #E0D6C9",
"d. c #9DA1B6",
"f. c #869FC7",
"g. c #A5ABBD",
"h. c #F5F0DD",
"j. c #EEE9D9",
"k. c #F3F1DE",
"l. c #F4F3DF",
"z. c #F0EDDB",
"x. c #EEE8D9",
"c. c #E4DDD0",
"v. c #9EA2B6",
"b. c #EEEADA",
"n. c #F4F2DF",
"m. c #F5F4E0",
"M. c #F1EDDC",
"N. c #E4DED0",
"B. c #92AED4",
"V. c #A8AEBF",
"C. c #ECE7D8",
"Z. c #F2F0DE",
"A. c #F3F2DF",
"S. c #EDE8D8",
"D. c #E3DCD0",
"F. c #E1D7C9",
"G. c #A0A4B8",
"H. c #91ADD3",
"J. c #88A1C8",
"K. c #8C87A9",
"L. c #F0EBDD",
"P. c #F9F6E0",
"I. c #FBFBE4",
"U. c #FDFDE5",
"Y. c #F9F6E1",
"T. c #F6F2DE",
"R. c #EEE8D6",
"E. c #DCD3CA",
"W. c #8883A5",
"Q. c #89A2C9",
"!. c #91AFD4",
"~. c #797EA5",
"^. c #9485A2",
"/. c #C7BFC3",
"(. c #CAC2C5",
"). c #CAC3C5",
"_. c #C8BFC3",
"`. c #C6BCC1",
"'. c #C1B6BD",
"]. c #90809E",
"[. c #7A7EA5",
"{. c #7A84AA",
"}. c #717098",
"|. c #72729A",
" X c #72719A",
".X c #72739A",
"XX c #727199",
"oX c #7B85AB",
"OX c #8FABD2",
"+X c #92B1D7",
"@X c #92B1D6",
/* pixels */
"                                                                                                    ",
"                                                                                                    ",
"                                                                                                    ",
"                                                                                                    ",
"                                                                                                    ",
"                                                                                                    ",
"                                                                                                    ",
"                                                                                                    ",
"                                                                                                    ",
"                                                                                                    ",
"                                                                                                    ",
"                                              . X X X                                               ",
"                                            o O + + +                                               ",
"                                          @ # $ % & * X @                                           ",
"                                        @ = - ; : : > , = @                                         ",
"                                          X < 1 2 3 4 5 .                                           ",
"                                          X 6 7 8 9 0 q .                                           ",
"                                        w e r t y u i p e w                                         ",
"                                        . a s d f g u h j .                                         ",
"                                      w e k t l z x c v b e w                                       ",
"                                      . j n m M N B u V C j .                                       ",
"                                    w e b v Z v Z A A S v b e w                                     ",
"                                    X D h F G H A V A A F h D X                                     ",
"                                  J K L P B d I A Z A A y U L K J                                   ",
"                                  J Y T R E W Q ! ~ ^ ^ / ( T Y J                                   ",
"                                  ) _ ` ' ] [ { } |  . .| ..X.o.)                                   ",
"                                  O.+.@.#.$.%.&.*.=.-.-.;.:.>.+.O.                                  ",
"                                  ,.<.1.2.3.4.5.6.7.7.7.8.9.0.q.O.                                  ",
"                                  ,.<.w.e.r.t.y.u.i.i.p.a.s.d.f.O.                                  ",
"                                  ,.<.g.h.j.k.l.z.x.j.j.c.s.v.f.O.                                  ",
"                                  ,.<.w.h.b.n.m.M.j.j.j.c.s.v.f.O.                                  ",
"                                  ,.<.w.h.b.n.m.M.j.j.j.c.s.v.f.O.                                  ",
"                                  ,.<.w.h.b.n.m.M.j.j.j.c.s.v.f.O.                                  ",
"                                  ,.<.w.h.b.n.m.M.j.j.j.c.s.v.f.O.                                  ",
"                                  ,.<.g.h.b.n.m.M.j.j.j.N.s.d.f.O.                                  ",
"                                  B.<.V.h.C.Z.A.r.C.C.S.D.F.G.q.O.                                  ",
"                                  H.J.K.L.P.I.U.Y.T.T.T.R.E.W.Q.H.                                  ",
"                                  . !.~.^./.(.)._.`.`.`.'.].[.!..                                   ",
"                                    @   {.}.|. X|.|.|..XXXoX  @                                     ",
"                                      OX+X@X@X@X@X@X@X@X@X@XOX                                      ",
"                                        . . . . . . . . . .                                         ",
"                                                                                                    ",
"                                                                                                    ",
"                                                                                                    ",
"                                                                                                    ",
"                                                                                                    ",
"                                                                                                    ",
"                                                                                                    ",
"                                                                                                    ",
"                                                                                                    "
};
