/* XPM */
static char *_b39bd2c5ad04286c0d35de9deafd595cBaW7orHn4jJHqU0[] = {
/* columns rows colors chars-per-pixel */
"50 50 85 1 ",
"  c None",
". c #34322E",
"X c #3A352B",
"o c #2D2F31",
"O c #313030",
"+ c #4F3F1F",
"@ c #443A27",
"# c #4B3E24",
"$ c #53411D",
"% c #5C471E",
"& c #5F491D",
"* c #6E4E0E",
"= c #7C5507",
"- c #76530E",
"; c #7B560E",
": c #7F590E",
"> c #664A13",
", c #684C14",
"< c #644C1B",
"1 c #684E19",
"2 c #6D5117",
"3 c #725315",
"4 c #795712",
"5 c #4F4123",
"6 c #544321",
"7 c #4E483A",
"8 c #564B36",
"9 c #5D4E32",
"0 c #5F5237",
"q c #5E533D",
"w c #65532D",
"e c #635435",
"r c #615339",
"t c #414141",
"y c #4E4E4E",
"u c #524F49",
"i c #575042",
"p c #595142",
"a c #4E4F50",
"s c #535454",
"d c #565758",
"f c #575859",
"g c #5B5C5C",
"h c #615741",
"j c #635944",
"k c #695D45",
"l c #695E49",
"z c #6A614F",
"x c #5E5F60",
"c c #646464",
"v c #6C6C6C",
"b c #767062",
"n c #747474",
"m c #777779",
"M c #7A7B7B",
"N c #865A02",
"B c #895C01",
"V c #845C0D",
"C c #885E0A",
"Z c #805B10",
"A c #8E6107",
"S c #8A600B",
"D c #946403",
"F c #996601",
"G c #9D6901",
"H c #926409",
"J c #A36D01",
"K c #848484",
"L c #878889",
"P c #8B8B8B",
"I c #8E8F90",
"U c #8F9092",
"Y c #949494",
"T c #979798",
"R c #9D9D9D",
"E c #9E9FA0",
"W c #A3A3A3",
"Q c #A7A7A8",
"! c #AAAAAA",
"~ c #B3B3B3",
"^ c #BBBBBB",
"/ c #C4C4C4",
"( c #CCCCCC",
") c #D3D3D3",
"_ c #DADADA",
/* pixels */
"                  gdufggxxggfufg                  ",
"               xcvYKaPERREWWLsKYxxc               ",
"            xcvLQ)~PsU!~!~_^IsPQEYKccx            ",
"         ugmT~/ML^WMaKW^EE^WKsMYYmnRQEvdu         ",
"       gccK~!QQYmdpjqjjjjrjjrqppsmYQ//Incnv       ",
"      cP~QPvLIPzr9ZBNBCBCCBBNNCZ0hzPIPvP!(Yc      ",
"    xvKQ(TPLlreVBDGFNFJJJJJJFNGJBBVeelLLUQTLMn    ",
"   KYEmMKkeeCBNFJJJFNFJJJJJJGNFJJJJNBCe9kKMM/Tv   ",
" cmRTKLbwCDDJFNJJJJFNGJJJJJJGNFJJJFNFJBDCwbKLKKnc ",
"yMWmnvswBJJJJFNFJJJFNFJJJJJJFNFJJJJNDJJJJBwsvbmWMy",
"yM!^~RgwNGJJJFNGJJJFNGJJJJJJFNFJJJFNFJJJJNwgRQ!^Ly",
"ycK^^EgwBGJJJFNGJJJFNFJJJJJJGBGJJJJNFJJJJNwc^~!/Ly",
"ycMmMndwBGJJJFNGJJJFNFJJJJJJGNFJJJFNFJJJFNwfILMMcy",
"yMWKMMdwBGJJJFNGJJJGNGJJJJJJFNFJJJJNFJJJJNwsmMMMcy",
"ym!/^RgwBGJJJFBGJJJFNFJJJJJJGNFJJJJNFJJJJBwgWQQ!my",
"yxnLMnswBGJJJFBGJJJFNFJJJJJJGNGJJJFNFJJJGNwxRQRMgu",
"yMWPKKdwBGJJJFBGJJJFNGJJJJJJGNFJJJFNFJJJD67dvnnKcy",
"yK^(^EgwBGJJJFNGJJJFNGJJJJJJFNFJJJJN>+66+.tfKLI/Py",
"yMQ~!RgwBGJJJFBGJJJGNFJJJJJJGNFJJJJN+OOOOotgR^(^Ku",
"ymRnvcswBGJJJFBGJJJFNGJJJJJJGNFJJJFNNVVV4@tscY~Wma",
"ygn!QPfwBJJJJFNGJJJFBGJJJJJJGNFJJJFNFJJJG-9fPMcvga",
"yvT~//cwBGJJJFNGJJJFNFJJJJJJFNFJJJJNFJJJJNwgERUTva",
"umERQQgwBGJJJFBGJJJFNFJJJJJJGNFJJJJBFJJJFNwgRWQQMy",
"ygcvKYgwBGJJJFNGJJJGNGJJJJJJGBFJJJFBFJJJJNwgEWRRna",
"ynR^TcswBGJJFS=SFJJFNGJJJJJJGNFJJJJNFJJJJBwfUKccfu",
"yMQ~QYgwBGJG&@X52JJFNGJJJJJJGNFJJJFNFJJJJBwscKEWmy",
"ynTTEEgwBGJJG3OZGJJFNGJJJJGJGNFJJJJNFJJJGNwgYW!)Uy",
"yfccMIfwAGJJH2O4HJJFNGJJJJJJGNFJJJFNFJJJJNwfIYTTny",
"unWWLcswBGFV%#X51SGGNGJJJJJJGNFJJJFNFJJJGNwscccvgu",
"uMQ!QRgwBJ4XSFNG4XSGNFJGJJJJGNFJJJGNFJJJGNwgTEWWmy",
"yvPPPLdwBGV54;2;36AFNGJJJJJJGNFJJJFNFJJJJBwg~~WPva",
"agvvvvswBGGG<5563GJFNGJJJJJJFNFJJJJNFJJJGBwxQRKnga",
"umQWWRgwBJJJJDNGJJJFNGJJJJJJGNFJJJGNFJJJGBwsvvmEmy",
"aK^!QEgwBGJJJFNGJJJFNGJJJJJJFNFJJJGNGJJJGBwgEQQ^Ky",
"yT_PKMdwBGJJJFBGJJJFNGJJJJJJGNFJJJGNFJJJJBwdMT!(Pa",
"ynRMnndwBGJJJFNGJJJFNGJJJGJJGNFJJJGNGJJJF>8svMMKca",
"ycMEQEgwNFJJJFNGJJJFNGJJJJJJGNFJJJGB-122<OtgEPmnxu",
"ymQQ~^xwNJJJJFNGJJJFNGJJJJJJGNGJJJGN+oooootxWQ!/Ly",
"ycmnQ)cwBJJJJFNJJJJFNFJJJJJJGNFJJJGN;223<O7snP~_Yy",
"ycMKKLgwNGJJJFNFJJJFNGJJJJJJFNFJJJGBFJJJF>9dMMMLvy",
"uMQQTMfwNJJJJFNFJJJFBFJJJJJJJNFJJJGNFJJJGBwgEYKKca",
"uM!/^RgwNGJJJFNJJJJGNGJJJJJJFNFJJJGNFJJJJBwgRQQQmy",
"ygvKMvswNGJJJFNFJJJFNFJJJJJJFNFJJJGBDJJJGBwgT^^mgy",
"uvPLPKfwBJJJJFNJJJJFNGJJJJJJGNFJJJGBFJJJGBwsvnKPvy",
"amWQQEgwNGJJJFNFJJJFNFJJJJJJGNFJJJGNFJJJGBwfLIT(Py",
"agnRWRgwNGJJJFNJJJJFNFJJJJJJFNFJJJJNDJJJJBwgT^(^Ka",
"yK~nccswBJJJJHNFJGJDNFJJJJJJFNDJGJFNFJGJFBwscW(Wnu",
"yK~TTPf9ZNNVNNNNCNVNNVNNVNVNVNVNVNNNVNCNVNwgPKnvgy",
"yL/WETgupppppppiiiiipiiiiiiiippipipppiiiipugTYU~Ky",
"yfcgggsuyyyyaaaaaaaaaaaaaaaaayaaaaaaaaaaaaaaggccgu"
};
