/* XPM */
static char *_db41343cf6540a98352eb54759bc2d2Z5kjWgjPXArsLjYs[] = {
/* columns rows colors chars-per-pixel */
"50 50 3 1 ",
"  c None",
". c black",
"X c #D2D1B4",
/* pixels */
"                                                  ",
"                                                  ",
"                                                  ",
"                                                  ",
"                                                  ",
"                                                  ",
"                                                  ",
"                                                  ",
"                                                  ",
"                                                  ",
"                                                  ",
"                                                  ",
"                                                  ",
"                                                  ",
"                                                  ",
"                                                  ",
"                     .......                      ",
"                  ....XXXXXXX...                  ",
"                ...X.....X...XX..                 ",
"               .XXX.. X.X.XX ..XX.                ",
"               ..... .......X ....                ",
"                .X.X..X.X.X..X.X.......           ",
"                .X..XX.....XX..XX.X.X...          ",
"                .X. X...X...X .X..X.X.X.          ",
"                .X..X.X...X.X..X.XXXXXX.          ",
"                .X. .X..X..X. ...XX..XX..         ",
"                ....X.......X..XX..XX..XX..       ",
"                .X.  .X.X.X. .X....XX....X.       ",
"                .X...X.....X..X....XX....X.       ",
"                .X.XX...X...X.X...XXXX...X.       ",
"                .X...XX...XX..XXXXXXXXXXXX.       ",
"                .X....X.X.X....XXXXXXXXXX..       ",
"                .X. ......... .XXXXXXXXXX.        ",
"               .XX. .X.XXX.X. ..XXXXXX....        ",
"               .X.. .XX...XX.  ..XXXX..X.         ",
"               .... .X.. ..X.   .XXXX.X..         ",
"                . . .X.   .X.    .......          ",
"                    .X.   .X.                     ",
"                    .X.   .X.                     ",
"                    .X.   .X.                     ",
"                    .X.   .X.                     ",
"                    .X.   .X.                     ",
"                    .X.   .X.                     ",
"                    .X.   .X.                     ",
"                    .X.   .X.                     ",
"                    .X.   .X.                     ",
"                    .X.   .X.                     ",
"                   ..X.   .X..                    ",
"                 ..XXX.   .XXX..                  ",
"               ........   ........                "
};
