/* XPM */
static char *_a8be67dc9bd4af1da14f52473dacb7e4LawWzGWzweKBhTG[] = {
/* columns rows colors chars-per-pixel */
"50 50 144 2 ",
"   c None",
".  c #000000",
"X  c #1C1405",
"o  c #161614",
"O  c #221600",
"+  c #271A00",
"@  c #291B00",
"#  c #34342D",
"$  c #3A352B",
"%  c #2D2F31",
"&  c #313030",
"*  c #3C3D3E",
"=  c #4C370E",
"-  c #4A3814",
";  c #4F3F1F",
":  c #443A27",
">  c #4B3E23",
",  c #413C31",
"<  c #53411D",
"1  c #5C471E",
"2  c #5F491D",
"3  c #654300",
"4  c #6E4E0E",
"5  c #744D00",
"6  c #7A5200",
"7  c #76530D",
"8  c #7B560E",
"9  c #7F590E",
"0  c #664A13",
"q  c #684C14",
"w  c #644C1B",
"e  c #684E19",
"r  c #6D5117",
"t  c #745414",
"y  c #795713",
"u  c #4F4123",
"i  c #544321",
"p  c #4E483A",
"a  c #564B36",
"s  c #5D4E32",
"d  c #5F5237",
"f  c #5E533D",
"g  c #65532D",
"h  c #635435",
"j  c #615339",
"k  c #424243",
"l  c #464748",
"z  c #4E4E4E",
"x  c #524F49",
"c  c #575042",
"v  c #595143",
"b  c #4E4F50",
"n  c #535454",
"m  c #565758",
"M  c #575859",
"N  c #5B5C5C",
"B  c #615741",
"V  c #635944",
"C  c #695D45",
"Z  c #695E49",
"A  c #6A614F",
"S  c #5D5E60",
"D  c #646464",
"F  c #6C6C6C",
"G  c #767062",
"H  c #747474",
"J  c #777779",
"K  c #7A7A7B",
"L  c #865A02",
"P  c #895C01",
"I  c #845C0D",
"U  c #885E0A",
"Y  c #805B10",
"T  c #8E6107",
"R  c #8A600B",
"E  c #946302",
"W  c #996601",
"Q  c #9D6901",
"!  c #936408",
"~  c #A36D01",
"^  c #99772D",
"/  c #A8822D",
"(  c #848484",
")  c #878889",
"_  c #8B8B8C",
"`  c #9D9C87",
"'  c #8E8F90",
"]  c #8F9092",
"[  c #949494",
"{  c #979798",
"}  c #9D9D9D",
"|  c #BFB287",
" . c #9E9FA0",
".. c #A0A0A0",
"X. c gray63",
"o. c #A0A0A2",
"O. c #A1A2A3",
"+. c #A2A2A2",
"@. c #A4A4A4",
"#. c #A5A5A5",
"$. c gray65",
"%. c #A7A7A7",
"&. c #A3A3A3",
"*. c #A7A7A8",
"=. c gray66",
"-. c #A9A9A9",
";. c #AAAAAA",
":. c gray67",
">. c gray68",
",. c #AEAEAE",
"<. c #AAAAAA",
"1. c gray69",
"2. c #B1B1B1",
"3. c #B2B2B2",
"4. c gray70",
"5. c #B4B4B4",
"6. c gray71",
"7. c #B6B6B6",
"8. c #B3B3B3",
"9. c #B9B9B9",
"0. c gray72",
"q. c #B9BABB",
"w. c #BBBBBB",
"e. c #BCBCBC",
"r. c #BDBEBF",
"t. c gray",
"y. c #BBBBBB",
"u. c #C6B787",
"i. c #D2D1B4",
"p. c #D2D1B4",
"a. c #C1C1C1",
"s. c #C3C3C3",
"d. c gray76",
"f. c gray77",
"g. c gray78",
"h. c #C4C4C4",
"j. c gray79",
"k. c #CBCBCB",
"l. c #CACACA",
"z. c #CDCDCD",
"x. c gray82",
"c. c gray83",
"v. c #DADADA",
"b. c #DADADA",
/* pixels */
"                                    N N x M N N N N N N M x M N                                     ",
"                              N D F [ ( n ) ..} { o.@.O.) n ( [ D S D                               ",
"                        S D H ) $.x.8._ n [ ,.3.>.6.b.9.' n _ $.o.[ ( D D N                         ",
"                  x N H { 3.h.K ) t...K b ( o.w.....t.O.( n K [ [ J H } $...F M z                   ",
"              N D D ( 8.;.;.;.[ H M v B f B B V V j V B j v v B n J [ #.a.h.' H D J F               ",
"            F _ 3.=.' F ) ' _ Z j h Y P L P U P T U P U P L P Y d j A _ ' _ F _ :.f.{ D             ",
"        D F ( @.l.{ _ ) Z j h I P T ~ W L W ~ ~ ~ ~ ~ ~ W P W Q P T I h j Z ( _ [ $.{ ) K F         ",
"      K [ ..J K ( C d h I P L W ~ ~ ~ W L W ~ ~ ~ ~ ~ ~ W P W ~ ~ ~ ~ P P I h h C ( K K f.} F       ",
"  D J ..{ ( ) G g U E T ~ W L ~ ~ ~ ~ W L Q ~ Q ~ ~ ~ ~ Q P W ~ ~ ~ W P W ~ E P U g G ( ( ( ( F D   ",
"b K ..J H F n g P ~ ~ ~ ~ W L W ~ ~ ~ Q L Q ~ ~ ~ ~ ~ ~ W P W ~ ~ ~ Q P E ~ ~ ~ ~ P g n F H K X.K x ",
"z K :.e.6.} N g P Q ~ ~ ~ W P Q ~ ~ ~ W L Q ~ ~ ~ ~ ~ ~ W P W ~ ~ ~ W L W ~ ~ ~ Q P g N X.$.-.t.( z ",
"z D ( e.9...N g P Q ~ ~ ~ E P Q ~ ~ ~ W L W ~ ~ ~ ~ ~ ~ W P W ~ ~ ~ ~ L W ~ ~ ~ W P g D 9.8.>.f.) b ",
"x D K J J J m g P Q ~ ~ ~ W P W ~ ~ ~ W L W ~ ~ ~ ~ ~ ~ Q L W ~ ~ ~ W P W ~ ~ ~ ~ P g M [ ) K K D z ",
"z K &.( K J m g P Q ~ ~ ~ W P Q ~ ~ ~ W L Q ~ ~ ~ ~ ~ ~ Q P W ~ ~ ~ Q P W ~ ~ ~ Q P g M H K K K D z ",
"z K :.f.y.} N g P Q ~ ~ ~ W P Q ~ ~ ~ W L W ~ ~ ~ ~ ~ ~ W P W ~ ~ ~ W L W ~ ~ ~ W P g N ..$.$.>.K z ",
"z N J ( ( F n g P Q ~ ~ ~ W P W ~ ~ ~ Q L Q ~ ~ ~ ~ ~ ~ W P W ~ ~ ~ ~ L W ~ ~ ~ ~ P g N ..$...H S z ",
"z K @.) ( ( m g P Q ~ ~ ~ W P Q ~ ~ ~ Q P + . . . . . . 5 P W ~ ~ ~ Q P E ~ ~ ~ E < p m F F H ( F z ",
"z ( t.l.q. .N g P Q ~ ~ ~ E P Q ~ Q @ . . . ` p.p.p.p.p.p.# . . 6 ~ Q P q i i < i & k M ( ) [ g.) z ",
"z K <.3.>.} N g P Q ~ ~ ~ W P W @ . . ` # . . . . ` # . . ` p.# . 6 W P ; & # & & & , S ..w.l.w.( z ",
"z J } H F D n g P Q ~ ~ ~ W P + ` p.p.# . 5 u.# ` # ` p./ O . ` p.# 5 P I I I I t # k m D [ 2.&.H z ",
"z N H :.@._ N g P Q ~ ~ ~ W P + . . . . 3 + . . . . . . ` ^ + . . . 6 P W ~ ~ ~ Q 7 s M ) K D F N b ",
"z F { 1.d.f.D g P Q ~ ~ ~ W P W @ ` # ` # . ` # ` # ` # . ` # ` # . . . . . . 6 Q P g N o.} [ [ F b ",
"x H ..} @.<.N g P Q ~ ~ ~ W P Q @ ` # . ` p.# . . . . ` p.# . ` p.# ` # ` # . . 6 P g N ..$.$.=.K z ",
"n N D F ( { N g P Q ~ ~ ~ W P Q @ ` # 5 | # . . ` # . . ` ^ + ` # . ` # ` # ` # 5 P g N ..o.} ..J x ",
"z H } t.{ D n g L Q ~ ~ W R 8 T + ` # . ` # ` # . . ` # ` # . ` # ` p.p.p.p.p.# 6 P g M { K D D M x ",
"z K <.>.=.[ M g P Q ~ Q w : $ u X ` # 5 O ` # . ` # . ` # 3 + . . ` p.# . ` p.# . 3 g m D ( ..&.J b ",
"z H { { ....N g L Q ~ Q Q r & I + . . . ` # . . . . . . ` # . ` p.# . ` p.# . ` p.# . k { +.,.z._ z ",
"z M D D K [ M g T Q ~ ~ ! e & y + ` # 5 P + ` # ` # ` # 5 O ` # . . . ` p.# . . . ` $ k ' [ [ } J z ",
"x H ..O.( D m g P Q W R 1 > : > X ` # . . ` # . . . . ` # . ` # . . . ` p.# . . . ` # * D D F D M z ",
"z K -.<.$.{ N g L ~ y $ R E L W X ` # ` p.# . . ` # . . ` # ` # . . ` p.p.p.# . . ` # k { O.O.&.J z ",
"z F _ _ _ ) M g P Q 9 i y 8 4 9 X ` # . . ` p.# . . ` p.# . ` p.p.p.p.p.p.p.p.p.p.p.# l ,.3.O.[ F x ",
"n N F F F F m g L Q ~ W w i > i X ` # . . . ` # ` # ` # . . . ` p.p.p.p.p.p.p.p.p.# . l <.{ ( H N b ",
"z H @.@.@...N g P W ~ ~ ~ E P W + ` # 5 O . . . . . . . . 3 + ` p.p.p.p.p.p.p.p.p.# ; n F F J ..J z ",
"z ( 9.>.<.&.N g P ~ ~ ~ ~ E P + ` p.# 5 O ` # ` p.p.# ` # 3 + . ` p.p.p.p.p.# . . . > N } @.<.w.( z ",
"x { b.' K K M g P ~ ~ ~ ~ W P + ` # . 5 O ` p.# . . ` p.# 3 Q @ . ` p.p.p.# . ` # 3 g m K { >.f._ z ",
"b H { K H H m g P W ~ ~ ~ E P + . . . 5 O ` # . 6 + . ` # 3 W ~ + ` p.p.p.# ` # . = a m H K K ( D z ",
"b D K ..$...N g L ~ ~ ~ ~ W L W @ 6 @ 5 O ` # 6 ~ ~ @ ` # 3 W ~ ~ + . . . . . . - & * N .._ J J S z ",
"z K >.$.3.0.S g P W ~ ~ ~ W L ~ ~ ~ ~ W O ` # 6 ~ ~ @ ` # 3 W ~ ~ ~ W L ; % % % % % k N ..@.:.f.) z ",
"z D J K =.c.D g L ~ ~ ~ ~ W L W ~ ~ ~ W O ` # 6 ~ ~ + ` # 3 W ~ ~ ~ ~ P 7 r r t w # p n H ' 1.b.{ z ",
"z D K K ) ) M g P W ~ ~ ~ W L ~ ~ ~ ~ W O ` # 6 ~ ~ @ ` # 3 W ~ ~ ~ Q P W ~ ~ ~ W q s M K J J _ F b ",
"x K =.$.{ K M g P ~ ~ ~ ~ W L W ~ ~ ~ W O ` # 6 ~ ~ @ ` $ 3 W ~ ~ ~ W L W ~ ~ ~ Q P g S O.[ ( ( D x ",
"x H >.h.w.} N g P W ~ ~ ~ W L ~ ~ ~ ~ W O ` # 6 ~ ~ @ ` # 3 W ~ ~ ~ Q P W ~ ~ ~ Q P g N } =.$.@.K z ",
"b S F ( H F n g P W ~ ~ ~ W L W ~ ~ ~ W O ` # 6 ~ ~ @ ` # 3 W ~ ~ ~ Q P W ~ ~ ~ Q P g N } 9.t.J N z ",
"b F _ ) _ ) M g P ~ ~ ~ ~ W L ~ ~ ~ ~ W O ` # 6 ~ ~ + ` # 3 W ~ ~ ~ Q P W ~ ~ ~ Q P g n D H ( ) F z ",
"z J #.=.>...N g P Q ~ ~ ~ W L W ~ ~ ~ Q O ` # 6 ~ ~ @ ` # 3 W ~ ~ ~ Q P W ~ ~ ~ Q P g M ) _ { l.' z ",
"z N H { #.{ N g P Q ~ ~ ~ W L ~ ~ ~ ~ W O ` # 6 ~ ~ @ ` # 3 W ~ ~ ~ W P E ~ ~ ~ Q P g N } t.x.9.K z ",
"z ( 5.H D D n h L W ~ ~ ~ ! L W ~ Q ~ W O ` # 6 Q ~ @ ` # 3 W ~ ~ Q Q P E ~ ~ Q Q P g m D &.z.&.J z ",
"z ( 0.{ [ ' M h L L L I L L L L I L U O . ` # 3 U U O ` # . 3 U I L L I L U I L L L g M _ ( H F S x ",
"z ( s.@.} { N x c c c c c c c c c o . ` p.p.& , x v o ` p.p.& . , c v v c c c c v v x M { { [ 3.( z ",
"x N D S N N n x b b b b b b b o . . . . o . . , b n o . . . . o . . * n b b b b b b z n N N S D M x "
};
